<?xml version="1.0" encoding="UTF-8"?><svg id="Layer_1" xmlns="http://www.w3.org/2000/svg" viewBox="0 0 409.69 101.8"><defs><style>.cls-1{fill:#075c7e;}.cls-2{fill:#a87f06;}</style></defs><polygon class="cls-1" points="201.72 69.45 171.38 57.95 171.74 16.99 201.37 31.84 201.72 69.45"/><polygon class="cls-1" points="237.94 16.99 238.4 58.17 208.2 69.45 208.49 31.65 237.94 16.99"/><path class="cls-1" d="M232.67,10.77c.1.1.06.59-.31.53-8.34,4.05-16.34,9.16-24.63,13.24-.57.28-1.44.85-2.04.85-.53,0-1.57-.54-2.12-.77-7.69-3.18-15.7-7.82-23.33-11.43-.49-.23-2.62-.89-2.72-.99-.41-.39,1.06-.9,1.28-1,8.84-4.1,18.46-7.25,27.41-11.2,8.37,3.32,16.76,6.81,25.05,10.4.39.17,1.38.31,1.44.37Z"/><polygon class="cls-1" points="212.16 70.17 219.99 82.7 220.55 83.1 228.71 70.17 236.03 70.17 236.03 101.3 229.07 101.3 229.07 81.18 220.54 94.13 219.94 93.96 211.56 81.42 211.56 101.3 204.84 101.3 204.84 70.17 212.16 70.17"/><polygon class="cls-1" points="159.27 33.52 0 33.28 0 29.45 159.27 30.05 159.27 33.52"/><polygon class="cls-1" points="409.69 33.52 250.66 33.28 250.66 29.45 409.69 30.05 409.69 33.52"/><polygon class="cls-1" points="324.29 89.09 324.29 70.17 331.01 70.17 331.01 101.3 325.37 101.3 310.14 81.66 310.14 101.3 303.43 101.3 303.43 70.17 309.78 70.17 324.29 89.09"/><polygon class="cls-1" points="159.27 62.02 159.27 65.85 14.63 65.61 14.63 61.78 159.27 62.02"/><polygon class="cls-1" points="395.29 65.85 250.66 65.61 250.66 61.78 395.29 62.38 395.29 65.85"/><path class="cls-1" d="M93.19,70.17c4.97.48,9.23,3.53,9.71,8.75s-1.51,9.17-6.48,11.26l7.44,11.13h-7.8c-1.25-.94-6.34-10.06-6.96-10.06h-5.16v10.06h-6.96v-31.14h16.19ZM83.95,85.26h7.32c.65,0,2.66-.67,3.22-1.09,2.13-1.59,2.05-5.69-.34-7.06-.22-.12-1.6-.71-1.69-.71h-8.52v8.86Z"/><path class="cls-1" d="M171.35,74.08c8.64-8.2,24.89-4.46,27.67,7.53,3.17,13.67-10.19,24.08-22.88,18.77-10.5-4.39-13.1-18.42-4.79-26.31ZM181.04,76.22c-10.67,1.54-9.8,20.25,3.05,19.1,11.89-1.07,10.74-21.08-3.05-19.1Z"/><polygon class="cls-1" points="132.16 70.17 132.16 76.39 115.61 76.39 115.61 82.62 130.25 82.62 130.25 88.61 115.61 88.61 115.61 95.08 132.4 95.08 132.4 101.3 108.66 101.3 108.66 70.17 132.16 70.17"/><polygon class="cls-1" points="375.63 70.17 375.63 76.39 359.07 76.39 359.07 82.62 373.71 82.62 373.71 88.61 359.07 88.61 359.07 95.08 375.87 95.08 375.87 101.3 352.36 101.3 352.36 70.17 375.63 70.17"/><path class="cls-1" d="M145.12,70.17v13.41l12.59-13.41h8.04l-12.22,13.29,12.7,17.84h-7.8l-9.83-13.17c-.37.55-3.48,3.22-3.48,3.47v9.34s-.33.36-.36.36h-6.6v-31.14h6.96Z"/><path class="cls-1" d="M299.59,101.3h-6.84c-1.38-2.06-1.93-4.56-2.97-6.8-4.27-.32-8.73-.1-13.07-.12-.61.21-2.35,6.03-3.15,6.91h-6.84l13.54-31.39c1.06.21,5.76-.32,6.25.26l13.07,31.14ZM287.12,88.13l-3.84-9.82c-.19-.14-.51.54-.6.72-1.33,2.81-2.47,6.18-3.48,9.1h7.92Z"/><path class="cls-1" d="M73.16,101.3h-7.2l-2.61-6.8c-4.27-.32-8.73-.1-13.07-.12-.61.21-2.35,6.03-3.15,6.91h-6.84l13.54-31.39c1.06.21,5.76-.32,6.25.26l13.07,31.14ZM60.69,88.13l-3.84-9.82-4.07,9.82h7.92Z"/><path class="cls-1" d="M249.94,91.96v9.34h-6.96v-31.14h14.51c2.8,0,6.95,2.36,8.48,4.71,4.79,7.38-.74,17.09-9.44,17.09h-6.6ZM249.94,85.73h6.84c.36,0,2.29-1.08,2.65-1.43,1.31-1.28,1.54-3.61.96-5.29-.34-1-2.57-2.62-3.61-2.62h-6.84v9.34Z"/><polygon class="cls-1" points="18.95 70.17 26.98 91.96 35.02 70.17 42.46 70.17 29.95 101.51 24.1 101.56 11.27 70.17 18.95 70.17"/><polygon class="cls-1" points="404.89 70.17 404.89 76.63 395.53 76.63 395.53 101.3 388.58 101.3 388.58 76.63 379.22 76.63 379.22 70.17 404.89 70.17"/><rect class="cls-1" x="338.21" y="70.17" width="6.96" height="31.14"/><path class="cls-2" d="M297.43,55.32c-.43-.09-1.95.14-2.13-.02-.27-.23-.26-2.77-1-1.98-2.09,2.21-3.66,2.55-6.81,2.24-8.23-.83-9.38-13.39-2.25-16.62,4.33-1.96,11.21-.58,11.97,4.88-.64-.13-2.69.21-3.08-.04-.08-.05-.35-.95-.56-1.24-1.3-1.79-3.49-2.1-5.58-1.81-5.26.72-5.74,10.06-1.27,12,3.03,1.31,7.42-.24,7.6-3.88h-4.92c-.53,0-.34-1.95-.36-2.4h8.4v8.86Z"/><path class="cls-2" d="M393.62,55.32c-2.82.21-1.88.03-2.61-1.82-.38-.96-.53.11-.85.39-2.05,1.76-4.46,1.98-7.1,1.57-7.52-1.18-8.46-12.99-2.12-16.27,4.4-2.28,11.62-1.03,12.45,4.64-.64-.13-2.69.21-3.08-.04-.08-.05-.35-.95-.56-1.24-1.3-1.79-3.49-2.1-5.58-1.81-4.42.61-5.33,7.24-3.22,10.36,2.46,3.62,9.27,2.36,9.55-2.24h-4.92c-.53,0-.34-1.95-.36-2.4h8.4v8.86Z"/><path class="cls-2" d="M70.4,38.55c3.29.47,5.44,3.9,3.85,6.96-.64,1.24-1.6,1.29-2.53,2.14,3.18.98,2.6,5.05,3.12,7.67-.68-.11-2.92.26-3.25-.22-.44-.63.22-4.32-1.31-5.64-.12-.11-1.24-.61-1.31-.61h-5.4v6.47c-.54-.06-3.12.23-3.12-.36v-16.41c3.08.31,6.98-.42,9.95,0ZM63.56,40.94v5.15s.33.36.36.36h4.8c2.22,0,3.92-2.49,2.52-4.44-.25-.35-1.48-1.07-1.8-1.07h-5.88Z"/><path class="cls-2" d="M133,38.55c.2.03,1.46.54,1.72.68,3.63,1.83,3.27,7.1-.65,8.31,3.44,1.05,2.5,5.11,3.36,7.78h-3.36c-.51-1.75.16-4.37-1.31-5.75-.13-.12-1.14-.71-1.21-.71h-5.4v6.47h-3.12v-16.77c3.04.34,7.04-.45,9.95,0ZM126.17,46.45h4.92c.18,0,1.79-.48,2.02-.62,1.43-.82,1.34-3.33,0-4.29-.16-.11-1.23-.61-1.31-.61h-5.64v5.51Z"/><path class="cls-2" d="M325.61,38.55c.2.03,1.45.54,1.72.68,3.66,1.82,3.26,7.1-.65,8.31,3.43,1.03,2.48,5.12,3.36,7.78h-3.36c-.5-1.58.08-4.41-1.18-5.64-.15-.15-1.26-.82-1.33-.82h-5.4v6.47h-3.12v-16.77c3.04.34,7.04-.45,9.95,0ZM324.41,40.94c-1.64-.27-3.92.2-5.64,0v5.51h4.92c.75,0,2.33-.61,2.7-1.37.9-1.85.07-3.79-1.98-4.14Z"/><path class="cls-2" d="M345.64,43.58c-.82-.14-2.26.21-2.97-.03-.55-.19-.37-1.93-2.24-2.55s-7.21-.34-5.32,2.68c1.34,2.14,9.32,1.11,10.7,5.36,2.8,8.65-15,8.78-14.8.53.53.1,2.89-.15,3.1.02.06.05.22,1.07.38,1.42,1.68,3.53,10.25,2.51,8.22-1.27-1.36-2.53-10.13-1.39-10.92-6.1-1.26-7.5,13.72-7.29,13.85-.06Z"/><path class="cls-2" d="M90.43,38.55v2.4h-10.07v4.31h8.52c.55,0,.33,2.16.36,2.63h-8.87v5.03h10.31v2.4h-13.31s-.36-.33-.36-.36v-16.41h13.43Z"/><path class="cls-2" d="M313.5,38.55v2.4h-10.31v4.31h8.75c.55,0,.33,2.16.36,2.63h-9.11v4.67s.33.36.36.36h10.19v2.4h-13.31s-.36-.33-.36-.36v-16.41h13.43Z"/><path class="cls-2" d="M95.71,48.61v6.71h-3.12v-16.77h9.95c.14,0,1.87.83,2.12,1,2.29,1.56,2.58,5.81.52,7.63-.49.43-2.77,1.43-3.36,1.43h-6.12ZM101.58,40.94c-1.6-.32-4.16.24-5.88,0v5.27h5.4c2.74,0,3.24-4.72.48-5.27Z"/><path class="cls-2" d="M362.91,55.31c-.72-.13-2.61.24-3.13-.11-.35-.24-1.23-3.3-1.46-3.93-.27-.24-6.91-.11-7.25,0-.77.27-1.24,3.56-1.83,3.92s-2.35-.02-3.12.11l6.7-16.66c.87-.08,3.09-.42,3.59.27l6.5,16.39ZM351.64,49.09h5.76c-.63-2.19-1.37-4.42-2.22-6.53-.1-.24-.34-1.27-.78-1.14-.39.12-2.26,6.77-2.76,7.67Z"/><path class="cls-2" d="M280.88,55.31c-.72-.13-2.61.24-3.13-.11-.4-.27-1.13-3.18-1.4-3.82-.06-.19-.22-.14-.38-.16-.79-.09-6.45-.11-6.93.06-.77.27-1.24,3.56-1.83,3.92s-2.35-.02-3.12.11l6.7-16.66c.87-.08,3.09-.42,3.59.27l6.5,16.39ZM269.61,49.09h5.76c-.66-2.17-1.38-4.43-2.22-6.53-.1-.24-.34-1.27-.78-1.14-.39.12-2.26,6.77-2.76,7.67Z"/><path class="cls-2" d="M115.1,38.58l6.51,16.73c-.54-.1-2.88.16-3.09-.03-.28-.24-.97-3.62-1.62-4.01-1.01.07-7.02-.26-7.31.12-.4.52-1.23,3.75-1.45,3.89-.36.23-2.46-.1-3.08.03l6.5-16.74h3.54ZM116.33,49.09c-1.02-2.34-1.56-5-2.63-7.32-.11-.24-.16-.56-.49-.59l-2.64,7.9h5.76Z"/><path class="cls-2" d="M52.74,38.58l6.51,16.73c-.63-.13-2.72.2-3.08-.03-.27-.17-.98-3.79-1.62-4.01-.98.06-7.07-.24-7.31.11-.25.52-1.27,3.78-1.44,3.9-.36.23-2.46-.1-3.08.03l6.5-16.38c.59-.75,2.59-.28,3.54-.35ZM53.97,49.09c-1.04-2.34-1.57-4.99-2.63-7.32-.11-.24-.16-.56-.49-.59l-2.64,7.9h5.76Z"/><path class="cls-2" d="M36.46,51.96l4.67-13.17c.44-.52,2.49-.11,3.24-.24l-6.02,16.39c-.57.79-2.36.19-3.23.4l-6.35-16.78c.75.12,2.81-.28,3.24.23l4.44,13.18Z"/><path class="cls-2" d="M153.03,38.55v2.4h-6v14.37h-3.12v-14.37h-5.76c-.12,0-.06-2.06-.24-2.4h15.11Z"/><polygon class="cls-2" points="254.25 38.55 254.25 52.92 263.37 52.92 263.37 55.32 251.14 55.32 251.14 38.55 254.25 38.55"/><path class="cls-2" d="M367.23,38.55v14.01s.33.36.36.36h8.99v2.4h-12.23v-16.77h2.88Z"/><rect class="cls-2" x="154.47" y="38.55" width="3.12" height="16.77"/></svg>